PathFileType	4	(X/Y/Z)	Kaydara																																																																																																																									
DataRate	CameraRate	NumFrames	NumMarkers	Units	OrigDataRate	OrigDataStartFrame	OrigNumFrames																																																																																																																					
30	30	7	41	mm	30	125	142																																																																																																																					
Frame#	Time	PAIB_LFHD			PAIB_RFHD			PAIB_LBHD			PAIB_RBHD			PAIB_LFTShould			PAIB_RFTShould			PAIB_LRRShould			PAIB_RRRShould			PAIB_T10			PAIB_STRN			PAIB_TRUN			PAIB_LSHO			PAIB_LUPA			PAIB_LELB			PAIB_LFRM			PAIB_LWRA			PAIB_LWRB			PAIB_LFIN			PAIB_RSHO			PAIB_RUPA			PAIB_RELB			PAIB_RFRM			PAIB_RWRA			PAIB_RWRB			PAIB_RFIN			PAIB_LFWT			PAIB_RFWT			PAIB_LBWT			PAIB_RBWT			PAIB_LTHI			PAIB_LKNE			PAIB_LSHN			PAIB_LANK			PAIB_LHEE			PAIB_LTOE			PAIB_RTHI			PAIB_RKNE			PAIB_RSHN			PAIB_RANK			PAIB_RHEE			PAIB_RTOE		
		X1	Y1	Z1	X2	Y2	Z2	X3	Y3	Z3	X4	Y4	Z4	X5	Y5	Z5	X6	Y6	Z6	X7	Y7	Z7	X8	Y8	Z8	X9	Y9	Z9	X10	Y10	Z10	X11	Y11	Z11	X12	Y12	Z12	X13	Y13	Z13	X14	Y14	Z14	X15	Y15	Z15	X16	Y16	Z16	X17	Y17	Z17	X18	Y18	Z18	X19	Y19	Z19	X20	Y20	Z20	X21	Y21	Z21	X22	Y22	Z22	X23	Y23	Z23	X24	Y24	Z24	X25	Y25	Z25	X26	Y26	Z26	X27	Y27	Z27	X28	Y28	Z28	X29	Y29	Z29	X30	Y30	Z30	X31	Y31	Z31	X32	Y32	Z32	X33	Y33	Z33	X34	Y34	Z34	X35	Y35	Z35	X36	Y36	Z36	X37	Y37	Z37	X38	Y38	Z38	X39	Y39	Z39	X40	Y40	Z40	X41	Y41	Z41
																																																																																																																												
125	4.143	290.85217	1599.18655	1704.1272	105.99437	1601.97678	1695.31601	304.48959	1595.85571	1575.67673	100.68824	1608.47839	1579.89883	249.47344	1353.2869	1627.49603	127.91023	1353.01575	1622.43851	266.74946	1449.3959	1505.43167	114.01426	1453.15048	1511.09695	184.05821	1324.87076	1382.81158	194.63127	1280.10544	1643.72391	191.52617	1176.07475	1634.4252	381.39774	1372.20367	1554.25812	453.79875	1159.07059	1498.03528	478.46581	1089.57962	1442.45697	483.14758	968.53485	1486.90689	399.92882	861.43044	1562.2258	454.58187	840.4734	1506.34735	447.38098	808.03459	1573.49075	0.70757	1376.41129	1565.72922	-90.69198	1245.46471	1466.5184	-133.70975	1144.64752	1419.37668	-151.02589	1003.12531	1412.3349	-77.50898	882.90436	1468.07983	-153.15393	873.66989	1427.77924	-134.98383	831.85677	1488.39508	304.10725	934.62547	1526.85425	68.16726	925.3315	1527.75681	232.53246	985.29175	1310.21622	94.82568	983.97469	1319.97803	287.30438	717.82364	1315.39688	301.57131	460.41153	1424.10049	261.45004	269.52967	1412.68204	252.42064	96.78198	1303.03452	195.909	95.33699	1252.80838	236.35273	40.41891	1472.28668	37.9624	665.12245	1391.50177	19.73248	455.58056	1546.66306	87.26474	277.36015	1492.76367	72.96371	134.94007	1322.8215	139.43178	146.34788	1298.78082	58.58892	52.51924	1494.11102
126	4.177	287.4173	1596.69388	1771.78711	102.43319	1596.63406	1761.95099	302.04016	1593.77075	1643.39233	97.93715	1603.078	1646.31149	245.6382	1349.90829	1696.71997	125.54235	1348.40363	1686.03958	270.02659	1444.90967	1573.66257	116.80856	1449.84192	1574.06158	190.47277	1319.32175	1449.64691	189.85327	1276.36696	1710.76096	186.99919	1172.30339	1702.76474	380.07656	1364.09225	1629.24591	451.98902	1148.12012	1586.8869	479.9184	1075.25009	1539.0535	461.07094	961.36047	1603.38791	355.40623	881.31798	1681.30753	412.60544	843.96126	1637.25449	390.76843	822.90718	1706.15723	0.29697	1375.08041	1623.86444	-92.34344	1257.15561	1511.63116	-138.11285	1162.83386	1455.72815	-166.28897	1024.82193	1435.7782	-105.97352	894.66591	1484.422	-180.12665	895.05371	1440.10468	-168.25594	846.65268	1497.46429	306.06501	926.03088	1596.52496	70.27459	925.06073	1599.23172	230.98434	979.65164	1379.69711	94.08841	978.92159	1391.4537	285.53339	724.18617	1366.65161	301.23419	460.26527	1438.67813	261.27989	271.56612	1420.71564	248.74334	101.7411	1305.8931	190.58201	101.5171	1257.89032	236.10983	39.76354	1474.28055	28.13777	663.57094	1482.06696	19.02762	467.77508	1660.51712	81.73431	277.8702	1651.6748	63.64542	96.982	1522.78046	131.77198	101.14692	1497.56058	42.51964	59.57972	1709.74579
127	4.21	283.52634	1586.52252	1839.45648	98.47761	1585.18555	1829.23004	298.52543	1583.15125	1711.07498	94.25234	1591.18637	1713.30292	241.7181	1334.60907	1764.7821	119.59959	1337.71545	1751.34506	271.28311	1433.05984	1643.75153	117.99159	1439.41772	1638.42163	194.83807	1306.82083	1517.98462	183.93278	1263.6454	1777.78793	180.94421	1159.73923	1770.46753	378.06988	1351.63071	1704.95361	454.42726	1135.44357	1675.00458	483.53485	1059.63158	1637.12204	443.01762	959.70558	1714.543	320.0124	907.68967	1789.7702	375.50476	856.465	1759.88602	342.87571	850.14931	1827.53571	-0.51987	1367.4881	1683.17703	-91.47898	1264.18297	1559.58954	-142.41727	1177.64084	1496.315	-179.2802	1043.62755	1465.57404	-130.85466	906.15738	1507.67075	-202.4902	914.87556	1460.0058	-196.61585	861.7202	1514.36066	308.29273	912.30049	1666.51154	73.90608	916.93672	1672.68768	229.8468	963.62167	1451.26236	90.40327	965.11398	1463.5997	281.73883	730.72006	1418.4227	301.87283	461.81751	1457.94724	264.29071	274.16004	1430.73105	247.40337	109.05317	1309.08432	187.84191	110.91392	1263.51097	237.59779	39.57777	1474.80179	25.9777	655.73112	1573.81638	16.12757	469.17419	1762.69821	74.21566	283.31167	1801.82251	52.14303	75.23808	1729.09256	119.6959	73.32756	1701.90262	37.56352	77.90771	1924.00177
128	4.243	278.65538	1572.36069	1907.61292	93.53486	1570.2243	1897.52838	293.77699	1568.39935	1779.05746	89.42048	1575.49286	1781.36749	235.35927	1317.34009	1835.63324	114.50236	1320.21606	1816.66901	270.04942	1416.60629	1715.69778	117.14629	1423.88763	1705.33447	197.83489	1289.96658	1587.92847	177.11058	1246.61949	1846.1084	174.26311	1142.72934	1839.22943	373.79128	1337.37061	1782.65503	457.58511	1124.11049	1762.34024	487.31438	1045.7045	1731.45981	428.94005	961.58089	1816.7688	296.17891	935.55222	1887.771	346.68404	874.30153	1869.87335	309.49621	882.06589	1935.07401	-3.25783	1355.86136	1744.23355	-91.74968	1266.92535	1609.80835	-145.43143	1186.56563	1541.17737	-189.38614	1056.63803	1501.84479	-152.82611	914.66621	1541.76407	-220.34409	929.8539	1489.33075	-221.61411	873.75679	1541.00632	310.90233	891.78169	1731.95847	75.5729	901.68533	1749.78271	221.94382	945.10254	1523.15201	84.24036	946.9265	1538.15491	272.77708	730.33829	1478.34808	301.62136	460.7415	1490.05829	264.68452	275.08186	1449.57596	248.33277	118.61876	1315.66605	187.99616	123.65715	1271.26289	238.52551	39.41529	1474.50943	30.16272	640.00534	1658.62732	14.56843	461.96655	1857.69791	66.31948	292.82488	1937.13425	41.80955	75.77679	1913.86658	109.46898	66.27143	1885.66193	37.4789	115.77682	2111.39603
129	4.277	272.55661	1557.66312	1977.54089	87.30093	1556.0318	1966.83319	288.10417	1552.69974	1848.98315	83.59394	1560.44159	1850.52246	227.22519	1300.88394	1908.11859	105.8897	1304.1716	1884.69894	265.71489	1400.51285	1788.13782	113.63626	1407.50259	1773.5025	197.18546	1271.52138	1660.62622	169.18955	1230.09804	1917.25815	167.3242	1126.20766	1911.43311	366.75362	1323.94592	1859.75815	459.16946	1113.83842	1847.04453	488.21301	1033.96675	1819.11301	419.99001	964.79271	1909.66385	282.18321	958.10966	1976.23611	328.86944	891.54732	1968.31253	288.94379	909.10912	2029.42474	-7.5989	1343.32748	1807.83096	-91.232	1264.64073	1666.69006	-147.80334	1189.29878	1594.53171	-197.73277	1063.14629	1550.36957	-171.30037	918.28728	1587.0311	-235.93611	938.76305	1532.55981	-242.35449	881.18713	1582.27432	310.89453	877.83585	1806.55746	77.70276	883.08136	1827.61597	211.6037	930.0106	1597.26791	76.87038	928.87825	1615.13885	263.78733	724.13582	1543.51349	301.96718	455.32837	1538.20938	265.44603	272.85091	1480.10437	248.41276	132.44146	1327.90573	187.37034	141.60105	1285.97794	238.68286	39.05856	1475.4187	27.90636	619.48895	1739.6109	15.61624	455.17723	1950.66116	67.21976	295.18394	2044.44077	41.73432	77.33086	2042.72293	109.70358	62.98586	2014.82681	39.82036	144.20382	2232.88574
130	4.31	266.13836	1545.04745	2047.75604	80.7472	1544.27795	2038.28064	280.48908	1537.01157	1919.04572	76.21962	1546.1676	1921.78909	219.17715	1287.36572	1981.46027	99.05621	1289.68643	1956.5863	258.7735	1387.64328	1861.3855	107.1607	1393.24005	1845.43625	192.47919	1256.52267	1734.52454	161.67456	1216.08994	1990.32547	160.86849	1112.21756	1985.54535	359.05144	1313.83896	1935.21378	456.2484	1108.05397	1925.3775	486.91502	1027.35924	1896.76285	415.59258	966.05576	1991.54236	277.49786	966.8013	2056.45142	322.64561	898.69568	2053.31055	281.39603	921.73004	2112.03461	-13.31052	1330.28168	1877.99301	-92.85161	1256.73058	1733.26141	-150.23572	1184.52682	1658.10532	-204.40205	1061.35559	1610.2269	-186.43192	914.41788	1645.25787	-247.94868	938.95065	1589.67682	-258.85096	881.34857	1638.42178	312.00443	862.90009	1884.1478	79.31115	869.94156	1910.33661	205.07963	915.7325	1676.66611	71.37661	914.79362	1695.86548	256.86966	711.65504	1621.22269	302.889	448.35716	1599.70764	268.05592	272.94886	1520.26825	251.13188	154.25219	1349.60724	189.76572	168.89551	1310.1059	238.79141	38.73029	1476.51611	24.81077	610.32001	1826.87607	18.35568	445.78873	2035.9491	75.75373	277.24453	2120.31693	55.88071	58.70186	2102.71027	122.16247	50.47933	2076.22162	45.44108	115.12662	2290.71899
131	4.343	259.36615	1541.18271	2119.70596	73.88207	1539.66324	2112.07458	272.5679	1532.0668	1990.87616	68.19825	1540.41107	1995.71869	213.34915	1280.7959	2056.73843	91.7497	1281.52496	2030.02457	251.7573	1382.04712	1935.40131	99.48259	1385.7457	1918.67264	187.46477	1248.89458	1810.01343	155.5257	1209.36363	2065.49011	155.11432	1105.47874	2061.61148	353.94192	1308.54492	2008.9595	452.97085	1103.72192	1988.43048	482.62405	1023.6805	1960.34683	416.4489	957.51312	2055.67291	281.22629	956.25397	2127.2847	326.21403	888.22311	2120.21469	288.74386	910.51353	2181.6124	-19.89972	1319.41635	1950.32684	-98.52517	1244.19006	1806.2558	-153.78162	1171.24893	1731.54114	-209.71096	1050.36613	1682.60986	-196.64967	903.18535	1717.6561	-256.43524	929.65988	1661.45599	-269.89067	872.34505	1709.5079	305.91433	853.72612	1963.70956	73.73408	867.04208	1984.90967	205.27048	905.271	1752.83005	69.9991	910.26062	1769.189	253.14238	700.02472	1704.40414	305.2486	436.49944	1685.9787	271.01374	272.14993	1578.255	260.9606	185.48008	1390.76019	201.07571	209.20233	1352.63535	237.61654	39.27139	1472.3587	21.54783	607.1262	1905.46555	12.66285	448.62976	2116.06873	74.60533	271.29292	2181.81961	48.80422	60.57265	2129.52408	114.19556	60.00726	2092.2966	48.68118	54.40661	2330.70633
